<svg width="85" height="52" viewBox="0 0 85 52" fill="none" xmlns="http://www.w3.org/2000/svg">
<g clip-path="url(#clip0_53_70)">
<path d="M42.0202 51.8501C41.7325 51.8501 41.4639 51.7735 41.2144 51.6396L38.6626 50.1276C38.2787 49.9169 38.4706 49.8404 38.5859 49.8022C39.1038 49.63 39.1998 49.5915 39.737 49.2855C39.7946 49.2471 39.8715 49.2663 39.9289 49.3045L41.8861 50.4721C41.9628 50.5103 42.0587 50.5103 42.1162 50.4721L49.772 46.0507C49.8487 46.0125 49.8872 45.9358 49.8872 45.8402V37.0168C49.8872 36.9209 49.8487 36.8446 49.772 36.8062L42.1162 32.404C42.0395 32.3656 41.9435 32.3656 41.8861 32.404L34.2303 36.8062C34.1536 36.8444 34.1151 36.9401 34.1151 37.0166V45.8401C34.1151 45.9168 34.1536 46.0123 34.2303 46.0507L36.3217 47.2565C37.4538 47.8307 38.1637 47.1608 38.1637 46.4909V37.7822C38.1637 37.6675 38.2596 37.5525 38.3939 37.5525H39.3724C39.4877 37.5525 39.6027 37.6483 39.6027 37.7822V46.4909C39.6027 48.0029 38.7776 48.8834 37.3386 48.8834C36.8973 48.8834 36.552 48.8834 35.5733 48.4048L33.5587 47.2565C33.0599 46.9695 32.7529 46.4334 32.7529 45.8593V37.0359C32.7529 36.4617 33.0599 35.9256 33.5587 35.6386L41.2144 31.2173C41.6942 30.9494 42.3466 30.9494 42.8262 31.2173L50.4819 35.6386C50.9807 35.9256 51.2879 36.4617 51.2879 37.0359V45.8593C51.2879 46.4334 50.9807 46.9695 50.4819 47.2565L42.8262 51.6778C42.5767 51.7928 42.289 51.8501 42.0204 51.8501H42.0202ZM44.3803 45.7828C41.0226 45.7828 40.3318 44.2516 40.3318 42.9501C40.3318 42.8352 40.4278 42.7204 40.5621 42.7204H41.5599C41.6749 42.7204 41.7709 42.7969 41.7709 42.9119C41.9244 43.9262 42.3657 44.4238 44.3996 44.4238C46.0112 44.4238 46.7022 44.0602 46.7022 43.1988C46.7022 42.7012 46.5101 42.3377 43.9966 42.0888C41.9052 41.8781 40.6005 41.4189 40.6005 39.7538C40.6005 38.2034 41.9053 37.2846 44.0926 37.2846C46.5485 37.2846 47.7574 38.1269 47.911 39.9641C47.911 40.0217 47.8917 40.079 47.8533 40.1365C47.8148 40.1747 47.7574 40.213 47.6998 40.213H46.702C46.6061 40.213 46.5101 40.1365 46.491 40.0408C46.2608 38.9882 45.6659 38.6435 44.0926 38.6435C42.3273 38.6435 42.1162 39.2561 42.1162 39.7153C42.1162 40.2705 42.3657 40.4427 44.7449 40.7489C47.1049 41.0553 48.2179 41.4954 48.2179 43.1414C48.1987 44.8257 46.8172 45.7828 44.3803 45.7828Z" fill="#539E43"/>
<path d="M18.2664 17.3409C18.2664 16.9964 18.0745 16.6708 17.7675 16.4986L9.63207 11.8286C9.4976 11.7519 9.3442 11.7136 9.1908 11.6944H9.11394C8.96054 11.6944 8.80698 11.7519 8.67267 11.8286L0.537238 16.4986C0.230109 16.6708 0.0383606 16.9963 0.0383606 17.3409L0.0576184 29.8966C0.0576184 30.0688 0.153575 30.241 0.306974 30.3177C0.460538 30.4134 0.652286 30.4134 0.786759 30.3177L5.62196 27.5615C5.92893 27.3893 6.12084 27.0639 6.12084 26.7194V20.8434C6.12084 20.499 6.31259 20.1736 6.61972 20.0013L8.67267 18.8146C8.82623 18.7189 8.99889 18.6805 9.17155 18.6805C9.3442 18.6805 9.51686 18.7189 9.65133 18.8146L11.7043 20.0013C12.0114 20.1736 12.2032 20.4988 12.2032 20.8434V26.7194C12.2032 27.0639 12.3951 27.3893 12.702 27.5615L17.5372 30.3177C17.6119 30.3646 17.6984 30.3895 17.7867 30.3895C17.8749 30.3895 17.9614 30.3646 18.0361 30.3177C18.1897 30.241 18.2856 30.0688 18.2856 29.8966L18.2664 17.3409ZM57.3702 0.0575064C57.2168 -0.0191688 57.0249 -0.0191688 56.8904 0.0575064C56.737 0.153226 56.6411 0.306245 56.6411 0.478475V12.9196C56.6411 13.0343 56.5836 13.1491 56.4684 13.2258C56.3534 13.2831 56.2381 13.2831 56.1231 13.2258L54.0892 12.0582C53.9401 11.9736 53.7715 11.929 53.5999 11.929C53.4283 11.929 53.2597 11.9736 53.1106 12.0582L44.9751 16.7475C44.6682 16.9198 44.4763 17.2452 44.4763 17.5896V26.949C44.4763 27.2934 44.6682 27.619 44.9751 27.7912L53.1106 32.4805C53.2597 32.5652 53.4283 32.6097 53.5999 32.6097C53.7715 32.6097 53.9401 32.5652 54.0892 32.4805L62.2247 27.7912C62.5316 27.619 62.7235 27.2936 62.7235 26.949V3.61752C62.7235 3.25385 62.5316 2.9286 62.2247 2.75621L57.3704 0.0575064H57.3702ZM56.622 23.8675C56.622 23.9633 56.5836 24.0398 56.5068 24.078L53.7247 25.6857C53.6858 25.7046 53.6431 25.7145 53.5999 25.7145C53.5567 25.7145 53.514 25.7046 53.4752 25.6857L50.6931 24.078C50.6162 24.0398 50.5778 23.9441 50.5778 23.8675V20.652C50.5778 20.5563 50.6162 20.4798 50.6931 20.4415L53.4752 18.8337C53.514 18.8147 53.5567 18.8049 53.5999 18.8049C53.6431 18.8049 53.6858 18.8147 53.7247 18.8337L56.5068 20.4415C56.5836 20.4796 56.622 20.5755 56.622 20.652V23.8675ZM84.4435 20.5755C84.7507 20.4033 84.9233 20.0778 84.9233 19.7332V17.4557C84.9233 17.1112 84.7314 16.7858 84.4435 16.6135L76.3657 11.9435C76.2166 11.8588 76.048 11.8143 75.8764 11.8143C75.7048 11.8143 75.5362 11.8588 75.3871 11.9435L67.2516 16.6326C66.9445 16.8048 66.7528 17.1302 66.7528 17.4747V26.8342C66.7528 27.1787 66.9447 27.5041 67.2516 27.6763L75.3295 32.2699C75.6366 32.4421 76.0012 32.4421 76.289 32.2699L81.1817 29.5523C81.3352 29.4756 81.4312 29.3034 81.4312 29.1311C81.4312 28.9589 81.3352 28.7867 81.1817 28.71L73.0079 24.0207C72.8543 23.925 72.7584 23.772 72.7584 23.5998V20.6714C72.7584 20.4991 72.8543 20.3269 73.0079 20.2502L75.5597 18.7956C75.6344 18.7487 75.7209 18.7238 75.8092 18.7238C75.8974 18.7238 75.9839 18.7487 76.0586 18.7956L78.6106 20.2502C78.7641 20.346 78.8599 20.499 78.8599 20.6714V22.9681C78.8599 23.1404 78.9559 23.3126 79.1095 23.3891C79.1842 23.436 79.2706 23.4609 79.3589 23.4609C79.4472 23.4609 79.5336 23.436 79.6083 23.3891L84.4435 20.5755Z" fill="#333333"/>
<path d="M75.7516 20.1352C75.7801 20.1164 75.8135 20.1064 75.8476 20.1064C75.8817 20.1064 75.9151 20.1164 75.9435 20.1352L77.4978 21.0347C77.5552 21.0731 77.5936 21.1305 77.5936 21.207V23.0063C77.5936 23.0828 77.5554 23.1402 77.4978 23.1785L75.9435 24.0781C75.9151 24.0968 75.8817 24.1068 75.8476 24.1068C75.8135 24.1068 75.7801 24.0968 75.7516 24.0781L74.1976 23.1785C74.1399 23.1402 74.1016 23.0828 74.1016 23.0063V21.2071C74.1016 21.1304 74.1398 21.073 74.1976 21.0349L75.7516 20.1352Z" fill="#539E43"/>
<path d="M39.9673 16.6327L31.8511 11.9818C31.7714 11.9417 31.6878 11.9096 31.6016 11.8861L22.5067 27.4278C22.5821 27.5196 22.6731 27.5973 22.7755 27.6575L30.8917 32.3085C31.122 32.4425 31.3906 32.4808 31.6399 32.4041L40.1784 16.8243C40.1208 16.7478 40.044 16.6901 39.9673 16.6328V16.6327Z" fill="url(#paint0_linear_53_70)"/>
<path fill-rule="evenodd" clip-rule="evenodd" d="M30.6231 10.2782L30.508 10.3357H30.6614L30.6231 10.2782Z" fill="url(#paint1_linear_53_70)"/>
<path fill-rule="evenodd" clip-rule="evenodd" d="M39.9865 27.6381C40.2168 27.5042 40.3894 27.2745 40.4663 27.0257L31.563 11.8669C31.3328 11.8287 31.0833 11.8477 30.8724 11.9817L22.8137 16.6136L31.5054 32.4231C31.6318 32.4025 31.7546 32.3638 31.87 32.3084L39.9864 27.6383L39.9865 27.6381Z" fill="url(#paint2_linear_53_70)"/>
<path fill-rule="evenodd" clip-rule="evenodd" d="M40.7349 27.4851L40.6773 27.3894V27.5234L40.7347 27.4851H40.7349Z" fill="url(#paint3_linear_53_70)"/>
<path fill-rule="evenodd" clip-rule="evenodd" d="M39.9865 27.6381L31.8894 32.2891C31.7751 32.3473 31.6519 32.386 31.5249 32.4039L31.6784 32.691L40.6581 27.5043V27.3893L40.4278 27.0065C40.3894 27.2744 40.2168 27.5041 39.9865 27.6381Z" fill="url(#paint4_linear_53_70)"/>
<path fill-rule="evenodd" clip-rule="evenodd" d="M39.9865 27.6381L31.8894 32.2891C31.7751 32.3473 31.6519 32.386 31.5249 32.4039L31.6784 32.691L40.6581 27.5043V27.3893L40.4278 27.0065C40.3894 27.2744 40.2168 27.5041 39.9865 27.6381Z" fill="url(#paint5_linear_53_70)"/>
</g>
<defs>
<linearGradient id="paint0_linear_53_70" x1="30.1545" y1="23.2272" x2="52.3041" y2="11.1635" gradientUnits="userSpaceOnUse">
<stop offset="0.1376" stop-color="#41873F"/>
<stop offset="0.4032" stop-color="#54A044"/>
<stop offset="0.7136" stop-color="#66B848"/>
<stop offset="0.9081" stop-color="#6CC04A"/>
</linearGradient>
<linearGradient id="paint1_linear_53_70" x1="23.7373" y1="10.2859" x2="38.6811" y2="10.2859" gradientUnits="userSpaceOnUse">
<stop offset="0.09192" stop-color="#6CC04A"/>
<stop offset="0.2864" stop-color="#66B848"/>
<stop offset="0.5968" stop-color="#54A044"/>
<stop offset="0.8624" stop-color="#41873F"/>
</linearGradient>
<linearGradient id="paint2_linear_53_70" x1="22.0389" y1="22.1357" x2="40.7309" y2="22.1357" gradientUnits="userSpaceOnUse">
<stop offset="0.09192" stop-color="#6CC04A"/>
<stop offset="0.2864" stop-color="#66B848"/>
<stop offset="0.5968" stop-color="#54A044"/>
<stop offset="0.8624" stop-color="#41873F"/>
</linearGradient>
<linearGradient id="paint3_linear_53_70" x1="35.0816" y1="27.4379" x2="40.6934" y2="27.4379" gradientUnits="userSpaceOnUse">
<stop offset="0.09192" stop-color="#6CC04A"/>
<stop offset="0.2864" stop-color="#66B848"/>
<stop offset="0.5968" stop-color="#54A044"/>
<stop offset="0.8624" stop-color="#41873F"/>
</linearGradient>
<linearGradient id="paint4_linear_53_70" x1="22.0391" y1="29.8644" x2="40.7308" y2="29.8644" gradientUnits="userSpaceOnUse">
<stop offset="0.09192" stop-color="#6CC04A"/>
<stop offset="0.2864" stop-color="#66B848"/>
<stop offset="0.5968" stop-color="#54A044"/>
<stop offset="0.8624" stop-color="#41873F"/>
</linearGradient>
<linearGradient id="paint5_linear_53_70" x1="43.454" y1="15.0081" x2="38.7412" y2="39.7642" gradientUnits="userSpaceOnUse">
<stop stop-color="#41873F"/>
<stop offset="0.3288" stop-color="#418B3D"/>
<stop offset="0.6352" stop-color="#419637"/>
<stop offset="0.9319" stop-color="#3FA92D"/>
<stop offset="1" stop-color="#3FAE2A"/>
</linearGradient>
<clipPath id="clip0_53_70">
<rect width="85" height="52" fill="white"/>
</clipPath>
</defs>
</svg>
